<?xml version="1.0" encoding="UTF-8"?>
<svg id="Layer_1" data-name="Layer 1" xmlns="http://www.w3.org/2000/svg" xmlns:xlink="http://www.w3.org/1999/xlink" viewBox="0 0 357.17 34.02">
  <defs>
    <style>
      .cls-1 {
        clip-path: url(#clippath);
      }

      .cls-2 {
        fill: none;
      }

      .cls-2, .cls-3 {
        stroke-width: 0px;
      }

      .cls-4 {
        clip-path: url(#clippath-1);
      }

      .cls-5 {
        clip-path: url(#clippath-4);
      }

      .cls-6 {
        clip-path: url(#clippath-3);
      }

      .cls-7 {
        clip-path: url(#clippath-2);
      }

      .cls-8 {
        clip-path: url(#clippath-7);
      }

      .cls-9 {
        clip-path: url(#clippath-8);
      }

      .cls-10 {
        clip-path: url(#clippath-6);
      }

      .cls-11 {
        clip-path: url(#clippath-5);
      }

      .cls-3 {
        fill: #1d1d1b;
      }
    </style>
    <clipPath id="clippath">
      <rect class="cls-2" x="2.83" y="1.7" width="351.5" height="30.62"/>
    </clipPath>
    <clipPath id="clippath-1">
      <rect class="cls-2" x="2.83" y="1.7" width="351.5" height="30.62"/>
    </clipPath>
    <clipPath id="clippath-2">
      <rect class="cls-2" x="2.83" y="1.7" width="351.5" height="30.62"/>
    </clipPath>
    <clipPath id="clippath-3">
      <rect class="cls-2" x="2.83" y="1.7" width="351.5" height="30.62"/>
    </clipPath>
    <clipPath id="clippath-4">
      <rect class="cls-2" x="2.83" y="1.7" width="351.5" height="30.62"/>
    </clipPath>
    <clipPath id="clippath-5">
      <rect class="cls-2" x="2.83" y="1.7" width="351.5" height="30.62"/>
    </clipPath>
    <clipPath id="clippath-6">
      <rect class="cls-2" x="2.83" y="1.7" width="351.5" height="30.62"/>
    </clipPath>
    <clipPath id="clippath-7">
      <rect class="cls-2" x="2.83" y="1.7" width="351.5" height="30.62"/>
    </clipPath>
    <clipPath id="clippath-8">
      <rect class="cls-2" x="2.83" y="1.7" width="351.5" height="30.62"/>
    </clipPath>
  </defs>
  <g class="cls-1">
    <path class="cls-3" d="m56.22,11.85c-.21-.22-.31-.49-.31-.79,0-.18.04-.35.11-.49.08-.14.17-.26.28-.37l2.49-2.1c.32-.27.59-.52.79-.73.2-.21.36-.4.48-.57.11-.17.19-.33.24-.48.04-.15.07-.3.07-.44,0-.28-.06-.51-.17-.67-.12-.17-.26-.29-.42-.38-.17-.08-.34-.14-.51-.16-.18-.02-.32-.04-.44-.04-.28,0-.57.04-.86.13-.29.09-.58.21-.86.36-.11.06-.22.1-.33.1-.19,0-.33-.09-.44-.27-.05-.08-.07-.17-.07-.28,0-.09.02-.17.07-.25.04-.08.11-.14.2-.19.75-.42,1.51-.63,2.28-.63.4,0,.76.05,1.08.16.33.11.61.26.84.46.23.2.42.44.54.71.13.28.19.59.19.92,0,.26-.03.5-.1.74-.07.23-.18.47-.33.71-.15.24-.35.49-.59.74-.24.25-.54.53-.88.82l-2.44,2.08s-.05.06-.05.1c0,.02,0,.05.03.07s.05.04.08.04h3.99c.16,0,.29.05.38.15.09.1.13.22.13.36s-.05.26-.13.36c-.09.1-.21.15-.38.15h-4.11c-.35,0-.64-.11-.85-.33"/>
    <path class="cls-3" d="m65.23,4.8c-.22.12-.4.26-.52.42-.12.16-.21.34-.27.51-.05.18-.09.32-.1.43-.02.26-.04.54-.06.84-.02.3-.02.61-.02.92s0,.62.02.92c.02.3.04.58.06.84.02.11.05.26.1.44.05.18.14.35.27.51.12.16.3.31.52.42.22.12.51.17.86.17s.64-.06.87-.17c.22-.12.39-.26.52-.42.12-.17.21-.34.27-.51.05-.18.09-.32.1-.44.02-.26.04-.54.06-.84.02-.3.02-.61.02-.92s0-.62-.02-.92-.04-.58-.06-.84c-.02-.11-.05-.26-.1-.43-.05-.18-.14-.35-.27-.51-.12-.17-.3-.31-.52-.42-.22-.12-.51-.18-.87-.18s-.64.06-.86.18m-1.17,6.73c-.23-.22-.42-.47-.56-.76-.14-.29-.22-.61-.27-.97-.03-.27-.06-.57-.07-.88-.02-.31-.02-.64-.02-.98s0-.66.02-.98c.02-.31.04-.61.07-.88.04-.35.13-.68.27-.97s.32-.54.56-.76c.53-.49,1.21-.74,2.03-.74s1.5.25,2.03.74c.23.22.42.47.56.76s.22.61.26.97c.03.27.06.57.07.88.02.31.02.64.02.98s0,.66-.02.98c-.02.31-.04.61-.07.88-.07.7-.35,1.28-.82,1.73-.53.49-1.21.74-2.03.74s-1.5-.25-2.03-.74"/>
    <path class="cls-3" d="m75.8,8.4c.25.34.38.77.38,1.29,0,.39-.07.74-.22,1.06-.15.32-.35.59-.61.82-.26.23-.58.4-.96.52-.37.12-.79.18-1.25.18s-.91-.07-1.35-.2c-.44-.13-.82-.28-1.12-.44-.19-.09-.29-.23-.29-.44,0-.09.02-.18.07-.28.1-.18.26-.27.46-.27.1,0,.21.02.3.07.23.11.53.23.88.35.35.12.71.18,1.05.18.18,0,.38-.02.6-.05.22-.04.43-.11.63-.22.2-.11.36-.27.5-.47.13-.21.2-.48.2-.82,0-.49-.17-.87-.51-1.15-.34-.27-.81-.41-1.41-.41h-.57c-.15,0-.28-.05-.37-.15-.09-.1-.14-.22-.14-.36s.05-.25.14-.36c.09-.1.21-.15.37-.15h.62c.12,0,.27-.01.45-.04.18-.02.36-.08.53-.16.17-.08.32-.21.44-.38s.18-.39.18-.67c0-.26-.05-.47-.14-.63s-.22-.29-.38-.38c-.16-.09-.33-.15-.52-.19-.19-.03-.38-.05-.56-.05-.27,0-.55.05-.84.13-.29.09-.57.21-.85.38-.13.06-.24.09-.33.09-.2,0-.35-.09-.45-.25-.05-.1-.07-.21-.07-.3s.02-.18.07-.25c.05-.07.11-.13.19-.17.75-.42,1.51-.63,2.27-.63.39,0,.76.05,1.09.15.33.1.61.24.85.42.26.21.45.45.59.74.13.28.2.6.2.95,0,.43-.1.8-.31,1.09-.21.29-.5.51-.88.68.46.17.82.43,1.07.77"/>
    <path class="cls-3" d="m79.73,4.8c-.22.12-.39.26-.52.42-.12.16-.21.34-.27.51-.05.18-.09.32-.1.43-.02.26-.04.54-.06.84-.02.3-.03.61-.03.92s0,.62.03.92c.02.3.04.58.06.84.02.11.05.26.1.44.05.18.14.35.27.51.12.16.3.31.52.42.22.12.51.17.86.17s.64-.06.86-.17c.22-.12.39-.26.52-.42.12-.17.21-.34.27-.51s.09-.32.1-.44c.02-.26.04-.54.06-.84.02-.3.02-.61.02-.92s0-.62-.02-.92-.04-.58-.06-.84c-.02-.11-.05-.26-.1-.43s-.14-.35-.27-.51c-.12-.17-.3-.31-.52-.42-.22-.12-.51-.18-.86-.18s-.64.06-.86.18m-1.17,6.73c-.23-.22-.42-.47-.56-.76-.14-.29-.22-.61-.27-.97-.03-.27-.06-.57-.07-.88-.02-.31-.02-.64-.02-.98s0-.66.02-.98c.02-.31.04-.61.07-.88.04-.35.13-.68.27-.97s.32-.54.56-.76c.53-.49,1.21-.74,2.03-.74s1.5.25,2.03.74c.23.22.42.47.56.76.14.29.23.61.26.97.03.27.06.57.07.88.02.31.02.64.02.98s0,.66-.02.98c-.02.31-.04.61-.07.88-.07.7-.35,1.28-.82,1.73-.53.49-1.21.74-2.03.74s-1.5-.25-2.03-.74"/>
    <path class="cls-3" d="m46.1,2.27c-.3,0-.55.24-.55.53v13.08c0,.29.25.53.55.53s.55-.24.55-.53V2.8c0-.29-.25-.53-.55-.53"/>
    <path class="cls-3" d="m9.5,12.38c-.3,0-.55.24-.55.53v3.41c0,.29.24.53.55.53s.55-.24.55-.53v-3.41c0-.29-.24-.53-.55-.53"/>
    <path class="cls-3" d="m12.32,6.49c-.3,0-.55.24-.55.53v7.89c0,.29.24.53.55.53s.55-.24.55-.53v-7.89c0-.29-.24-.53-.55-.53"/>
    <path class="cls-3" d="m48.91,1.7c-.3,0-.55.24-.55.53v11.92c0,.29.25.53.55.53s.55-.24.55-.53V2.23c0-.29-.25-.53-.55-.53"/>
    <path class="cls-3" d="m51.73,2.7c-.3,0-.55.24-.55.53v10.57c0,.29.25.53.55.53s.55-.24.55-.53V3.23c0-.29-.25-.53-.55-.53"/>
    <path class="cls-3" d="m15.11,1.86c-.3,0-.55.24-.55.53v11.7c0,.29.24.53.55.53s.55-.24.55-.53V2.39c0-.29-.24-.53-.55-.53"/>
    <path class="cls-3" d="m17.95,3.42c-.3,0-.55.24-.55.53v9.33c0,.29.24.53.55.53s.55-.24.55-.53V3.95c0-.29-.24-.53-.55-.53"/>
    <path class="cls-3" d="m20.76,3.33c-.3,0-.55.24-.55.53v9.27c0,.29.25.53.55.53s.55-.24.55-.53V3.86c0-.29-.25-.53-.55-.53"/>
    <path class="cls-3" d="m23.57,4.27c-.3,0-.55.24-.55.53v9.4c0,.29.25.53.55.53s.55-.24.55-.53V4.8c0-.29-.25-.53-.55-.53"/>
    <path class="cls-3" d="m26.39,3.08c-.3,0-.55.24-.55.53v11.35c0,.29.25.53.55.53s.55-.24.55-.53V3.61c0-.29-.25-.53-.55-.53"/>
    <path class="cls-3" d="m29.2,4.12c-.3,0-.55.24-.55.53v10.29c0,.29.25.53.55.53s.55-.24.55-.53V4.65c0-.29-.25-.53-.55-.53"/>
    <path class="cls-3" d="m32.01,6.58c-.3,0-.55.24-.55.53v8.49c0,.29.25.53.55.53s.55-.24.55-.53V7.12c0-.29-.25-.53-.55-.53"/>
    <path class="cls-3" d="m34.83,7.32c-.3,0-.55.24-.55.53v9.61c0,.29.25.53.55.53s.55-.24.55-.53V7.85c0-.29-.24-.53-.55-.53"/>
    <path class="cls-3" d="m40.46,3.72c-.3,0-.55.24-.55.53v14.93c0,.29.25.53.55.53s.55-.24.55-.53V4.25c0-.29-.25-.53-.55-.53"/>
    <path class="cls-3" d="m43.28,2.96c-.3,0-.55.24-.55.53v13.87c0,.29.25.53.55.53s.55-.24.55-.53V3.49c0-.29-.25-.53-.55-.53"/>
    <path class="cls-3" d="m37.65,4.82c-.3,0-.55.24-.55.53v14.57c0,.29.25.53.55.53s.55-.24.55-.53V5.35c0-.29-.25-.53-.55-.53"/>
    <path class="cls-3" d="m43.71,28.42h-2.83l1.45-2.53c.14-.25.18-.54.1-.81-.07-.28-.25-.51-.5-.65-.16-.09-.34-.14-.53-.14-.38,0-.74.21-.93.54l-3.37,5.87c-.29.51-.12,1.17.4,1.46.16.09.35.14.53.14.38,0,.74-.21.93-.54l.68-1.19h4.06c.59,0,1.07-.48,1.07-1.07s-.48-1.07-1.07-1.07"/>
    <path class="cls-3" d="m42.11,21.96l-.92,1.61c.07,0,.14-.01.22-.01.64,0,1.21.33,1.54.88v.02s.04.05.05.06l4,7.21c.19.34.55.55.94.55.18,0,.36-.05.52-.14.52-.29.7-.94.42-1.46l-4.85-8.73c-.19-.36-.55-.58-.95-.58s-.74.21-.93.55l-.02.04Z"/>
    <path class="cls-3" d="m66.91,29.2v-.02s-.04-.05-.05-.06l-4-7.2c-.19-.34-.55-.55-.94-.55-.18,0-.36.05-.52.14-.25.14-.43.37-.51.64-.08.28-.05.56.09.81l4.85,8.73c.19.36.55.58.95.58s.74-.21.93-.55l.02-.04.92-1.62c-.07,0-.14.01-.21.01-.64,0-1.21-.33-1.54-.88"/>
    <path class="cls-3" d="m69.38,28.82l3.36-5.87c.14-.25.18-.54.11-.81-.08-.28-.25-.51-.5-.65-.16-.09-.35-.14-.53-.14-.38,0-.74.21-.93.54l-3.37,5.87c-.14.25-.18.54-.1.81.07.28.25.51.5.65s.54.18.81.1c.28-.08.51-.25.65-.5"/>
    <path class="cls-3" d="m32.75,21.6c-.56-.18-1.14-.28-1.73-.28-3.03,0-5.49,2.46-5.49,5.49s2.46,5.49,5.49,5.49c1.56,0,3.06-.67,4.1-1.84.39-.44.35-1.12-.09-1.51-.44-.39-1.12-.35-1.51.09-.64.71-1.55,1.12-2.5,1.12-1.84,0-3.35-1.5-3.35-3.35s1.5-3.35,3.35-3.35c.36,0,.72.06,1.05.17.27.09.56.07.82-.06.26-.13.45-.35.54-.62.19-.56-.12-1.17-.68-1.35"/>
    <path class="cls-3" d="m35.47,25.78h-3.45c-.59,0-1.07.48-1.07,1.07s.48,1.07,1.07,1.07h2.36c.75.02,1.4.5,1.65,1.18.33-.71.5-1.5.51-2.3-.02-.58-.49-1.03-1.07-1.03"/>
    <path class="cls-3" d="m17.53,21.37c-.59,0-1.07.48-1.07,1.07v5.91c0,.59.48,1.07,1.07,1.07s1.07-.48,1.07-1.07v-5.91c0-.59-.48-1.07-1.07-1.07"/>
    <path class="cls-3" d="m23.79,30.15h-6.26c-.4,0-.77-.12-1.09-.36v1.43c0,.59.48,1.07,1.07,1.07h6.27c.59,0,1.07-.48,1.07-1.07s-.48-1.07-1.07-1.07"/>
    <path class="cls-3" d="m51.66,24.23c-.59,0-1.07.48-1.07,1.07v5.87c0,.59.48,1.07,1.07,1.07s1.07-.48,1.07-1.07v-5.87c0-.59-.48-1.07-1.07-1.07"/>
    <path class="cls-3" d="m57.56,31.94c.2.24.5.38.81.38.25,0,.5-.09.69-.25.22-.19.35-.44.37-.73.02-.28-.07-.56-.25-.78l-2.2-2.59.22-.05c1.48-.37,2.52-1.7,2.52-3.23,0-1.83-1.49-3.33-3.33-3.33h-1.6s-.02,0-.02,0h-3.14c-.59,0-1.07.48-1.07,1.07v1.43c.31-.23.69-.36,1.08-.36h3.13s.02,0,.02,0h.02s1.57,0,1.57,0c.65,0,1.19.53,1.19,1.19s-.53,1.19-1.19,1.19h-1.69c-.41,0-.8.24-.97.62-.17.38-.11.83.16,1.14l3.67,4.3Z"/>
    <path class="cls-3" d="m9.58,28.42h-2.83l1.45-2.53c.14-.25.18-.54.11-.81-.07-.28-.25-.51-.5-.65-.16-.09-.34-.14-.53-.14-.38,0-.74.21-.93.54l-3.37,5.87c-.29.51-.12,1.17.4,1.46.16.09.35.14.53.14.38,0,.74-.21.93-.54l.68-1.19h4.06c.59,0,1.07-.48,1.07-1.07s-.48-1.07-1.07-1.07"/>
    <path class="cls-3" d="m9.88,21.95c-.19-.36-.55-.58-.95-.58s-.74.21-.93.55l-.02.04-.92,1.61c.07,0,.14-.01.22-.01.64,0,1.21.33,1.54.88v.02s.04.05.05.06l4,7.2c.19.34.55.55.94.55.18,0,.36-.05.52-.14.52-.29.7-.94.42-1.46l-4.85-8.73Z"/>
    <path class="cls-3" d="m82.47,21.38h-6.93c-.59,0-1.07.48-1.07,1.07v5.87c0,.59.48,1.07,1.07,1.07s1.07-.48,1.07-1.07v-4.8h5.85c.59,0,1.07-.48,1.07-1.07s-.48-1.07-1.07-1.07"/>
    <path class="cls-3" d="m82.44,30.13h-6.89c-.4,0-.77-.12-1.09-.36v1.43c0,.59.48,1.07,1.07,1.07h6.9c.59,0,1.07-.48,1.07-1.07s-.48-1.07-1.07-1.07"/>
    <path class="cls-3" d="m81.79,26.86c0-.59-.48-1.07-1.07-1.07h-2.27c-.59,0-1.07.48-1.07,1.07s.48,1.07,1.07,1.07h2.27c.59,0,1.07-.48,1.07-1.07"/>
    <path class="cls-3" d="m139.05,5.3h1.26c.73,0,1.11-.09,1.48-.36.32-.23.54-.75.54-1.24s-.22-1.03-.54-1.26c-.37-.27-.74-.36-1.48-.36h-1.26v3.22Zm1.25-3.46c.77,0,1.2.07,1.63.39.39.28.66.87.66,1.46s-.27,1.18-.66,1.46c-.43.32-.87.39-1.63.39h-1.25v2.82h-.26V1.84h1.51Z"/>
    <path class="cls-3" d="m143.1,5.11c0,1.8,1.39,3.13,3.12,3.13s3.12-1.33,3.12-3.14-1.39-3.14-3.12-3.14-3.12,1.33-3.12,3.14h0Zm-.26-.02c0-1.95,1.51-3.36,3.38-3.36s3.38,1.42,3.38,3.37-1.52,3.37-3.38,3.37-3.38-1.42-3.38-3.37h0Z"/>
    <path class="cls-3" d="m150.34,1.84h1.49c1.01,0,1.42.09,1.74.27.53.26.94.98.94,1.74.02.4-.11.92-.41,1.32-.48.62-1.02.7-1.76.73l1.75,2.46h-.34l-1.91-2.7h.18c.48,0,1.25,0,1.67-.41.41-.43.55-.88.55-1.39,0-.56-.27-1.19-.78-1.51-.4-.26-.87-.26-1.64-.26h-1.22v6.28h-.26V1.84Z"/>
  </g>
  <polygon class="cls-3" points="154.41 1.84 154.41 2.08 156.18 2.08 156.18 8.36 156.45 8.36 156.45 2.08 158.22 2.08 158.22 1.84 154.41 1.84"/>
  <g class="cls-4">
    <path class="cls-3" d="m158.98,1.84v4.23c0,.63,0,1.04.4,1.57.28.37.82.6,1.34.6s1.03-.23,1.31-.6c.4-.53.4-.93.4-1.57V1.84h.26v4.23c0,.59-.02,1.47-.78,2.01-.33.25-.77.4-1.21.4s-.87-.15-1.21-.4c-.77-.54-.79-1.42-.78-2.01V1.84h.26Z"/>
    <path class="cls-3" d="m169.55,3.28c-.26-.34-.57-.62-.92-.84-.5-.32-1.09-.48-1.73-.48-1.73,0-3.12,1.33-3.12,3.14s1.39,3.14,3.12,3.14c.83,0,1.56-.3,2.11-.74.56-.45.93-1.05,1.05-1.66h-3.88v-.24h4.2c-.04.34-.13.66-.28.96-.54,1.11-1.75,1.91-3.19,1.91-1.87,0-3.38-1.42-3.38-3.37s1.52-3.37,3.38-3.37c1.2,0,2.37.59,2.96,1.56h-.32Z"/>
  </g>
  <path class="cls-3" d="m173.21,2.09l1.59,3.76h-3.18l1.59-3.76Zm-.17-.25l-2.79,6.52h.28l.98-2.27h3.41l.98,2.27h.28l-2.79-6.52h-.34Z"/>
  <polygon class="cls-3" points="176.7 1.84 176.7 8.36 179.72 8.36 179.72 8.12 176.97 8.12 176.97 1.84 176.7 1.84"/>
  <g class="cls-7">
    <path class="cls-3" d="m138.13,29.91c2.16-2.08,4.3-4.2,6.44-6.28,1.79-1.69,3.69-3.32,3.8-5.73,0-2.56-1.74-4.17-4.01-4.17s-3.9,1.77-3.98,4.75h-2.08c.05-1.9.58-3.51,1.69-4.7,1.29-1.56,3.22-1.98,4.59-1.98,3.61,0,6.02,2.64,5.96,5.99-.08,2.11-1.06,3.59-2.98,5.59-2.14,2.14-4.27,4.27-6.44,6.41h9.47v1.87h-12.45v-1.77Z"/>
    <path class="cls-3" d="m154.38,25.48c0,2.74,1.93,4.62,4.43,4.62,2.03,0,4.43-1.58,4.43-4.62v-7.12c0-1.93-1.16-4.62-4.49-4.62-2.56,0-4.38,1.9-4.38,4.72v7.02Zm-2.19-6.91c0-5.65,4.7-6.76,6.6-6.76,3.14,0,6.62,2.16,6.62,6.6v7.02c0,5.15-4.38,6.6-6.54,6.6-2.48,0-6.68-1.58-6.68-6.6v-6.86Z"/>
    <path class="cls-3" d="m167.92,16.77c.13-3.54,2.98-4.96,5.28-4.96,2.8,0,5.07,1.9,5.07,4.8,0,1.95-1.16,3.32-2.69,4.12,3.46,1.19,3.93,4.01,3.93,5.22,0,3.56-2.74,6.07-6.41,6.07-1.93,0-3.96-.82-5.15-2.38-.82-1.08-1.19-2.43-1.21-3.69h2.19c.1,2.61,2.11,4.14,4.25,4.14,2.59,0,4.14-1.9,4.14-4.19,0-2.09-1.69-4.17-4.59-4.17h-1.29v-1.69h.98c2.8,0,3.69-2.03,3.69-3.19,0-1.77-1.16-3.11-2.93-3.11-2.03,0-3.01,1.53-3.11,3.03h-2.14Z"/>
    <path class="cls-3" d="m183.46,25.48c0,2.74,1.93,4.62,4.43,4.62,2.03,0,4.43-1.58,4.43-4.62v-7.12c0-1.93-1.16-4.62-4.49-4.62-2.56,0-4.38,1.9-4.38,4.72v7.02Zm-2.19-6.91c0-5.65,4.7-6.76,6.6-6.76,3.14,0,6.62,2.16,6.62,6.6v7.02c0,5.15-4.38,6.6-6.54,6.6-2.48,0-6.68-1.58-6.68-6.6v-6.86Z"/>
  </g>
  <polygon class="cls-3" points="115.89 29.37 124.99 32.32 128.54 24.63 115.89 29.37"/>
  <polygon class="cls-3" points="111.97 11.33 111.97 30.48 114.3 24.97 120.71 20.35 120.71 1.76 111.97 11.33"/>
  <polygon class="cls-3" points="120.32 2.18 111.97 11.33 111.97 21.45 112.83 28.45 114.3 24.97 114.64 24.72 120.71 4.79 120.71 2.18 120.32 2.18"/>
  <polygon class="cls-3" points="123.32 3.95 123.32 21.72 115.89 26.92 128.55 22.22 134.34 16.52 134.34 1.72 123.32 3.95"/>
  <polygon class="cls-3" points="132.06 2.18 125.03 3.6 124.19 3.91 129.26 21.52 134.34 16.52 134.34 2.18 132.06 2.18"/>
  <polygon class="cls-3" points="124.99 32.32 128.55 31.22 128.54 24.63 124.99 32.32"/>
  <g class="cls-6">
    <path class="cls-3" d="m276.43,11.07l1.36.43c-.2.76-.55,1.32-1.04,1.69-.48.36-1.1.55-1.84.55-.92,0-1.68-.31-2.27-.94-.59-.63-.89-1.49-.89-2.58,0-1.15.3-2.05.89-2.69.6-.63,1.38-.96,2.35-.96.85,0,1.53.25,2.07.75.31.3.56.72.71,1.28l-1.39.33c-.08-.36-.26-.64-.51-.85-.26-.2-.58-.31-.95-.31-.51,0-.93.18-1.25.55-.32.36-.48.96-.48,1.79,0,.88.16,1.5.47,1.87.31.37.72.55,1.23.55.37,0,.69-.12.96-.36.27-.23.46-.61.58-1.12h0s0,.01,0,.01Z"/>
    <path class="cls-3" d="m280.03,11.11c0,.5.12.88.36,1.15.23.26.53.39.88.39s.64-.13.87-.39c.23-.26.35-.65.35-1.15s-.12-.87-.35-1.13c-.23-.26-.53-.39-.87-.39s-.64.13-.88.39c-.23.26-.36.64-.36,1.15h0Zm-1.36-.07c0-.44.11-.87.33-1.28.22-.42.53-.73.93-.95.4-.22.85-.33,1.33-.33.76,0,1.38.25,1.87.74.48.5.73,1.12.73,1.87s-.25,1.39-.74,1.89c-.49.5-1.11.75-1.85.75-.46,0-.9-.1-1.31-.31-.42-.21-.74-.51-.95-.91-.22-.4-.33-.89-.33-1.47h-.02Z"/>
    <path class="cls-3" d="m288.07,8.6h1.33v5.02h-1.33v-5.02Zm0-1.91h1.33v1.23h-1.33v-1.23Zm-3.73,1.91h.74v-.38c0-.42.04-.74.13-.95.09-.2.26-.38.5-.51.24-.13.55-.2.91-.2s.75.06,1.11.17l-.18.93c-.21-.05-.42-.07-.61-.07s-.33.04-.42.13c-.08.09-.12.26-.12.52v.36h.99v1.04h-.99v3.98h-1.33v-3.98h-.74v-1.04h.02Z"/>
    <path class="cls-3" d="m295.36,13.63h-1.33v-2.56c0-.54-.03-.89-.09-1.05-.06-.16-.15-.29-.28-.37-.12-.09-.28-.13-.46-.13-.23,0-.44.07-.62.19-.18.12-.31.29-.37.5-.07.2-.1.59-.1,1.15v2.27h-1.33v-5.02h1.23v.74c.44-.57.99-.85,1.66-.85.29,0,.56.05.8.16.24.1.42.24.55.4.12.16.21.35.26.56.05.2.07.5.07.89v3.13Z"/>
    <path class="cls-3" d="m299.48,11.22c-.17.06-.44.12-.81.2-.37.08-.61.15-.72.23-.17.12-.26.28-.26.47s.07.34.2.48c.14.14.31.21.53.21.24,0,.47-.08.69-.23.16-.12.26-.26.31-.44.04-.12.05-.33.05-.65v-.26h0Zm-1.77-1.08l-1.2-.22c.14-.48.37-.85.7-1.08.33-.23.83-.35,1.48-.35.59,0,1.04.07,1.32.21.29.14.5.32.61.53.12.22.17.61.17,1.19v1.55c-.01.44,0,.77.05.98.04.21.12.43.24.67h-1.31c-.04-.09-.08-.22-.12-.39-.02-.08-.04-.13-.04-.15-.23.22-.47.39-.73.5-.26.11-.53.17-.83.17-.52,0-.93-.14-1.22-.42-.3-.28-.45-.63-.45-1.06,0-.28.07-.53.21-.76.14-.22.33-.39.57-.51.24-.12.6-.22,1.06-.31.62-.12,1.05-.23,1.29-.33v-.13c0-.25-.07-.44-.19-.55-.12-.11-.36-.16-.71-.16-.23,0-.42.04-.55.14-.13.1-.24.26-.32.49h-.02Z"/>
    <path class="cls-3" d="m306.66,13.63h-1.33v-2.56c0-.54-.03-.89-.09-1.05-.06-.16-.15-.29-.28-.37-.12-.09-.28-.13-.46-.13-.23,0-.44.07-.62.19-.18.12-.31.29-.37.5-.07.2-.1.59-.1,1.15v2.27h-1.33v-5.02h1.23v.74c.44-.57.99-.85,1.66-.85.29,0,.56.05.8.16.24.1.42.24.55.4.12.16.21.35.26.56.05.2.07.5.07.89v3.13Z"/>
    <path class="cls-3" d="m312.39,10.09l-1.31.23c-.04-.26-.15-.46-.3-.59-.15-.13-.36-.2-.61-.2-.33,0-.59.12-.79.34-.2.23-.29.61-.29,1.15,0,.6.1,1.01.3,1.26.2.25.47.37.8.37.26,0,.46-.07.62-.21.16-.15.28-.39.34-.74l1.31.22c-.14.6-.39,1.05-.78,1.36-.39.31-.9.46-1.55.46-.74,0-1.32-.23-1.76-.69-.44-.46-.66-1.1-.66-1.93s.22-1.48.66-1.94c.44-.46,1.03-.69,1.77-.69.61,0,1.1.13,1.46.39.36.26.62.66.78,1.2h0Z"/>
  </g>
  <path class="cls-3" d="m313.39,8.6h1.33v5.02h-1.33v-5.02Zm0-1.91h1.33v1.23h-1.33v-1.23Z"/>
  <g class="cls-5">
    <path class="cls-3" d="m318.85,11.22c-.17.06-.44.12-.81.2-.37.08-.61.15-.72.23-.17.12-.26.28-.26.47s.07.34.2.48c.14.14.31.21.53.21.24,0,.47-.08.69-.23.16-.12.26-.26.31-.44.04-.12.05-.33.05-.65v-.26h0Zm-1.77-1.08l-1.2-.22c.14-.48.37-.85.7-1.08.33-.23.83-.35,1.48-.35.59,0,1.04.07,1.32.21.29.14.5.32.61.53.12.22.17.61.17,1.19v1.55c-.01.44,0,.77.05.98.04.21.12.43.24.67h-1.31c-.04-.09-.08-.22-.12-.39-.02-.08-.04-.13-.04-.15-.23.22-.47.39-.73.5-.26.11-.53.17-.83.17-.52,0-.93-.14-1.22-.42-.3-.28-.45-.63-.45-1.06,0-.28.07-.53.21-.76.14-.22.33-.39.57-.51.24-.12.6-.22,1.06-.31.62-.12,1.05-.23,1.29-.33v-.13c0-.25-.07-.44-.19-.55-.12-.11-.36-.16-.72-.16-.23,0-.42.04-.55.14-.13.1-.24.26-.32.49h-.02Z"/>
    <path class="cls-3" d="m322.52,11c0,.53.07.92.22,1.16.21.34.51.52.9.52.31,0,.56-.13.78-.39.21-.26.32-.65.32-1.17,0-.58-.1-.99-.31-1.25-.21-.26-.48-.38-.8-.38s-.58.12-.79.37c-.21.25-.32.63-.32,1.12h0Zm3.55,2.62h-1.23v-.74c-.2.28-.44.5-.72.64-.28.14-.56.21-.85.21-.58,0-1.07-.23-1.48-.7-.41-.47-.61-1.11-.61-1.94s.2-1.5.6-1.94c.4-.45.9-.67,1.52-.67.56,0,1.04.23,1.45.7v-2.5h1.33v6.93Z"/>
    <path class="cls-3" d="m328.43,11.11c0,.5.12.88.36,1.15.23.26.53.39.88.39s.64-.13.87-.39c.23-.26.35-.65.35-1.15s-.12-.87-.35-1.13c-.23-.26-.53-.39-.87-.39s-.64.13-.88.39c-.23.26-.36.64-.36,1.15h0Zm-1.36-.07c0-.44.11-.87.33-1.28.22-.42.53-.73.93-.95.4-.22.85-.33,1.33-.33.76,0,1.38.25,1.87.74.48.5.73,1.12.73,1.87s-.25,1.39-.74,1.89c-.49.5-1.11.75-1.85.75-.46,0-.9-.1-1.31-.31-.42-.21-.74-.51-.95-.91-.22-.4-.33-.89-.33-1.47h-.02Z"/>
    <path class="cls-3" d="m337.26,11.03c0,.56.11.98.34,1.25.23.27.5.4.82.4s.56-.12.77-.37c.2-.25.31-.65.31-1.22,0-.53-.1-.92-.31-1.18-.21-.26-.48-.38-.78-.38s-.59.12-.81.37c-.21.25-.32.62-.32,1.11h0s0,.01,0,.01Zm-1.31-2.42h1.24v.74c.16-.25.38-.46.65-.61.28-.16.58-.23.91-.23.58,0,1.08.23,1.48.69.41.46.61,1.1.61,1.91s-.2,1.49-.61,1.96c-.41.47-.9.7-1.49.7-.28,0-.53-.06-.75-.17-.23-.11-.46-.3-.71-.57v2.53h-1.33v-6.93h0Z"/>
    <path class="cls-3" d="m344.88,10.68c0-.39-.11-.68-.3-.88-.19-.2-.42-.3-.69-.3-.29,0-.53.1-.71.31-.19.21-.29.5-.28.86h1.99Zm-.07,1.34l1.32.22c-.17.48-.44.85-.8,1.11-.36.26-.83.38-1.38.38-.88,0-1.52-.28-1.93-.85-.33-.46-.5-1.04-.5-1.73,0-.83.22-1.48.65-1.96.43-.47.98-.71,1.65-.71.75,0,1.34.25,1.77.74.43.5.64,1.25.62,2.26h-3.33c0,.39.12.7.32.92.2.22.46.33.77.33.2,0,.38-.06.53-.17.15-.11.25-.3.32-.55h0Z"/>
  </g>
  <rect class="cls-3" x="347.28" y="6.7" width="1.33" height="6.93"/>
  <g class="cls-11">
    <path class="cls-3" d="m352.73,11.22c-.17.06-.44.12-.81.2-.37.08-.61.15-.72.23-.17.12-.26.28-.26.47s.07.34.2.48c.14.14.31.21.53.21.24,0,.47-.08.69-.23.16-.12.26-.26.31-.44.04-.12.05-.33.05-.65v-.26h0Zm-1.77-1.08l-1.2-.22c.14-.48.37-.85.7-1.08.33-.23.83-.35,1.48-.35.59,0,1.04.07,1.32.21.29.14.5.32.61.53.12.22.17.61.17,1.19v1.55c-.01.44,0,.77.05.98.04.21.12.43.24.67h-1.31c-.04-.09-.08-.22-.12-.39-.02-.08-.04-.13-.04-.15-.23.22-.47.39-.73.5-.26.11-.53.17-.83.17-.52,0-.93-.14-1.22-.42-.3-.28-.45-.63-.45-1.06,0-.28.07-.53.21-.76.14-.22.33-.39.57-.51.24-.12.6-.22,1.06-.31.62-.12,1.05-.23,1.29-.33v-.13c0-.25-.07-.44-.19-.55-.12-.11-.36-.16-.71-.16-.23,0-.42.04-.55.14-.13.1-.24.26-.32.49h-.02Z"/>
    <path class="cls-3" d="m271.98,18.31h1.4v3.75c0,.6.01.98.05,1.16.06.28.2.51.43.69.23.18.53.26.93.26s.69-.08.9-.24c.2-.16.32-.36.36-.6.04-.23.06-.63.06-1.18v-3.83h1.4v3.64c0,.83-.04,1.42-.12,1.77-.07.34-.21.64-.42.87-.2.23-.47.42-.82.56-.34.14-.79.21-1.34.21-.66,0-1.16-.07-1.5-.23-.34-.15-.61-.35-.81-.6-.2-.24-.33-.5-.39-.77-.1-.39-.14-.99-.14-1.76v-3.71Z"/>
    <path class="cls-3" d="m283.54,25.24h-1.33v-2.56c0-.54-.03-.89-.09-1.05-.06-.16-.15-.28-.28-.37-.12-.09-.28-.13-.46-.13-.23,0-.44.07-.62.19-.18.12-.31.29-.37.5-.07.2-.1.59-.1,1.15v2.27h-1.33v-5.02h1.23v.74c.44-.57.99-.85,1.66-.85.29,0,.56.05.8.16.24.1.42.24.55.4.12.16.21.35.26.56.05.2.07.5.07.89v3.13Z"/>
  </g>
  <path class="cls-3" d="m284.89,20.22h1.33v5.02h-1.33v-5.02Zm0-1.9h1.33v1.23h-1.33v-1.23Z"/>
  <g class="cls-10">
    <path class="cls-3" d="m290.35,22.83c-.17.06-.44.12-.81.2-.37.08-.61.15-.72.23-.17.12-.26.28-.26.47s.07.34.21.48c.14.14.31.2.53.2.24,0,.47-.08.69-.23.16-.12.26-.26.31-.44.04-.12.05-.33.05-.65v-.26h0Zm-1.79-3.28h-.61v-.17c0-.33.08-.58.24-.77.16-.18.37-.27.62-.27.11,0,.21.01.31.04s.27.1.52.2c.25.11.45.17.59.17.1,0,.18-.03.26-.1.07-.07.11-.17.13-.31h.61c0,.42-.08.73-.24.91-.15.18-.36.28-.61.28-.11,0-.21-.02-.31-.04-.07-.02-.26-.08-.54-.2-.29-.11-.5-.17-.63-.17-.1,0-.18.03-.23.1-.06.06-.09.17-.09.32h-.01Zm0,2.2l-1.2-.22c.14-.48.37-.85.7-1.08.33-.23.83-.35,1.48-.35.59,0,1.04.07,1.32.21.29.14.5.32.61.53.12.22.17.61.17,1.19v1.55c-.01.44,0,.77.05.98.04.21.12.43.24.67h-1.31c-.04-.09-.08-.22-.12-.39-.02-.08-.04-.13-.04-.15-.23.22-.47.39-.73.5-.26.11-.53.17-.83.17-.52,0-.93-.14-1.22-.42-.3-.28-.45-.64-.45-1.07,0-.28.07-.53.21-.76.14-.22.33-.39.57-.51.24-.12.6-.22,1.06-.31.62-.12,1.05-.23,1.29-.33v-.13c0-.26-.07-.44-.19-.55-.12-.11-.36-.16-.71-.16-.23,0-.42.04-.55.14-.13.1-.24.26-.32.49h-.02Z"/>
    <path class="cls-3" d="m294.01,22.73c0,.5.12.88.36,1.15.23.26.53.39.88.39s.64-.13.87-.39c.23-.26.35-.65.35-1.15s-.12-.87-.35-1.13c-.23-.26-.53-.39-.87-.39s-.64.13-.88.39c-.23.26-.36.64-.36,1.15h0Zm-1.36-.07c0-.44.11-.87.33-1.28.22-.42.53-.73.93-.95.4-.22.85-.33,1.33-.33.76,0,1.38.25,1.87.74.48.5.73,1.12.73,1.87s-.25,1.39-.74,1.89c-.49.5-1.11.75-1.85.75-.46,0-.9-.1-1.31-.31-.42-.2-.74-.51-.95-.91-.22-.4-.33-.89-.33-1.47h-.02Z"/>
  </g>
  <polygon class="cls-3" points="301.57 25.24 301.57 18.31 306.71 18.31 306.71 19.49 302.97 19.49 302.97 21.02 306.45 21.02 306.45 22.19 302.97 22.19 302.97 24.07 306.84 24.07 306.84 25.24 301.57 25.24"/>
  <g class="cls-8">
    <path class="cls-3" d="m311.32,25.24v-.75c-.18.27-.42.48-.72.63-.3.15-.61.23-.94.23s-.64-.07-.9-.22c-.27-.15-.46-.36-.58-.62-.12-.27-.18-.63-.18-1.11v-3.18h1.33v2.31c0,.71.02,1.14.07,1.3.05.16.14.28.27.38.13.1.29.14.49.14.23,0,.43-.07.61-.19.18-.12.3-.28.37-.46.07-.18.1-.64.1-1.36v-2.12h1.33v5.02h-1.23Z"/>
    <path class="cls-3" d="m315.2,25.24h-1.33v-5.02h1.23v.72c.21-.34.4-.56.57-.66.17-.11.36-.16.58-.16.3,0,.59.08.88.25l-.41,1.16c-.23-.15-.43-.22-.62-.22s-.34.05-.48.15c-.13.1-.23.29-.31.56-.07.27-.11.83-.11,1.69v1.55h0Z"/>
    <path class="cls-3" d="m318.75,22.73c0,.5.12.88.36,1.15.23.26.53.39.88.39s.64-.13.87-.39c.23-.26.35-.65.35-1.15s-.12-.87-.35-1.13c-.23-.26-.53-.39-.87-.39s-.64.13-.88.39c-.23.26-.36.64-.36,1.15h0Zm-1.36-.07c0-.44.11-.87.33-1.28.22-.42.52-.73.93-.95.4-.22.85-.33,1.33-.33.76,0,1.38.25,1.87.74.48.5.73,1.12.73,1.87s-.25,1.39-.74,1.89c-.49.5-1.11.75-1.85.75-.46,0-.9-.1-1.31-.31-.42-.2-.74-.51-.95-.91-.22-.4-.33-.89-.33-1.47h-.02Z"/>
    <path class="cls-3" d="m324.89,22.64c0,.56.11.98.34,1.25.23.27.5.4.82.4s.56-.12.77-.37c.2-.25.31-.65.31-1.22,0-.53-.1-.92-.31-1.18-.21-.26-.48-.38-.78-.38s-.59.12-.81.37c-.21.25-.32.62-.32,1.11h0s0,.01,0,.01Zm-1.31-2.42h1.24v.74c.16-.25.38-.46.65-.61.28-.16.58-.23.91-.23.58,0,1.08.23,1.48.69.41.46.61,1.1.61,1.91s-.2,1.49-.61,1.96c-.41.47-.9.7-1.49.7-.28,0-.53-.06-.75-.17-.23-.11-.46-.3-.71-.57v2.53h-1.33v-6.93h0Z"/>
    <path class="cls-3" d="m332.5,22.3c0-.39-.11-.68-.3-.88-.19-.2-.42-.3-.69-.3-.29,0-.53.1-.71.31-.19.21-.29.5-.28.86h1.98Zm-.07,1.34l1.32.22c-.17.48-.44.85-.8,1.11-.36.26-.83.38-1.38.38-.88,0-1.52-.29-1.93-.85-.33-.46-.5-1.04-.5-1.73,0-.83.22-1.48.65-1.96.44-.48.98-.71,1.65-.71.75,0,1.34.25,1.77.74.43.5.64,1.25.62,2.26h-3.33c0,.39.12.7.32.92.2.22.46.33.77.33.2,0,.38-.06.53-.17.15-.11.25-.3.32-.55h0Z"/>
  </g>
  <path class="cls-3" d="m334.91,20.22h1.33v5.02h-1.33v-5.02Zm0-1.9h1.33v1.23h-1.33v-1.23Z"/>
  <g class="cls-9">
    <path class="cls-3" d="m340.37,22.83c-.17.06-.44.12-.81.2-.37.08-.61.15-.72.23-.17.12-.26.28-.26.47s.07.34.21.48c.14.14.31.2.53.2.24,0,.47-.08.69-.23.16-.12.26-.26.31-.44.04-.12.05-.33.05-.65v-.26h0Zm-1.77-1.08l-1.2-.22c.14-.48.37-.85.7-1.08.33-.23.83-.35,1.48-.35.59,0,1.04.07,1.32.21.29.14.5.32.61.53.12.22.17.61.17,1.19v1.55c-.01.44,0,.77.05.98.04.21.12.43.24.67h-1.31c-.04-.09-.08-.22-.12-.39-.02-.08-.04-.13-.04-.15-.23.22-.47.39-.73.5-.26.11-.53.17-.83.17-.52,0-.93-.14-1.22-.42-.3-.28-.45-.64-.45-1.07,0-.28.07-.53.21-.76.14-.22.33-.39.57-.51.24-.12.6-.22,1.06-.31.62-.12,1.05-.23,1.29-.33v-.13c0-.26-.07-.44-.19-.55-.12-.11-.36-.16-.71-.16-.23,0-.42.04-.55.14-.13.1-.24.26-.32.49h-.02Z"/>
  </g>
  <path class="cls-3" d="m254.86,16.56l-.9.65.34,1.05-.89-.65-.89.65.34-1.05-.9-.65h1.12l.34-1.06.34,1.06h1.12Zm-1.23-4.61l-.9.64.34,1.06-.89-.66-.89.66.34-1.06-.9-.64h1.11l.34-1.07.34,1.07h1.12Zm-3.37-3.37l-.9.65.34,1.05-.89-.65-.89.65.34-1.05-.9-.65h1.12l.34-1.07.34,1.07h1.12Zm-2.03,16.64l-.9-.66h1.11s.34-1.06.34-1.06l.34,1.06h1.12l-.9.66.34,1.05-.89-.65-.89.65.34-1.05Zm-2.59.57l-.9.65.34,1.05-.89-.65-.89.65.34-1.05-.9-.65h1.12l.34-1.07.34,1.07h1.12Zm0-18.45l-.9.65.34,1.05-.89-.65-.89.65.34-1.05-.9-.65h1.12l.34-1.07.34,1.07h1.12Zm-4.61,17.23l-.9.66.34,1.05-.89-.65-.89.65.34-1.05-.91-.66h1.12s.34-1.06.34-1.06l.34,1.06h1.12Zm0-15.99l-.9.65.34,1.05-.89-.65-.89.65.34-1.05-.9-.65h1.12l.34-1.07.34,1.07h1.12Zm-3.38,12.61l-.9.65.34,1.05-.89-.65-.89.65.34-1.05-.9-.65h1.12l.34-1.06.34,1.06h1.11Zm0-9.23l-.9.65.34,1.05-.89-.65-.89.65.34-1.05-.9-.65h1.12l.34-1.07.34,1.07h1.11Zm-3.04,4.61l.34-1.07.34,1.07h1.12l-.91.65.34,1.06-.89-.66-.89.66.34-1.06-.9-.65h1.11Zm17.01,5.26l-.9-.65h1.11l.34-1.06.34,1.06h1.12l-.9.65.34,1.05-.89-.65-.89.65.34-1.05Zm13.7-18.87h-42.24v28.06h42.24V2.97Z"/>
</svg>